<svg
	xmlns="http://www.w3.org/2000/svg" id="Layer_2" viewBox="0 0 159.96 30.1">
	<defs>
		<style>.cls-1{fill:#fff;}</style>
	</defs>
	<g id="Layer_1-2">
		<g>
			<path id="NeuralSeek" class="cls-1" d="M115.55,18.14h.07l5.19-5.07h2.36l-5.67,5.14,6.25,6.13h-2.4l-5.72-5.81h-.07v5.81h-1.64V6.14h1.64v11.99Zm-5.02,.02v.35c0,.12,0,.26-.02,.4h-9.33c.01,.64,.12,1.24,.33,1.81,.21,.57,.5,1.06,.87,1.48,.37,.42,.81,.75,1.3,1,.5,.24,1.03,.37,1.61,.37,.85,0,1.58-.19,2.2-.59,.62-.39,1.09-.84,1.4-1.36l1.22,.97c-.67,.81-1.41,1.38-2.22,1.68-.81,.31-1.67,.46-2.6,.46-.83,0-1.61-.15-2.33-.45-.71-.3-1.32-.72-1.83-1.26-.51-.53-.92-1.17-1.22-1.9-.29-.74-.44-1.54-.44-2.4s.14-1.66,.43-2.39c.29-.74,.69-1.37,1.21-1.91,.51-.54,1.11-.95,1.8-1.26,.69-.3,1.43-.45,2.23-.45,.89,0,1.66,.15,2.33,.43,.67,.29,1.24,.69,1.68,1.18,.45,.49,.79,1.07,1.02,1.72,.23,.66,.35,1.36,.35,2.11Zm-1.65-.41c-.05-1.12-.39-2.04-1.02-2.78-.63-.73-1.53-1.1-2.7-1.1-.55,0-1.05,.11-1.52,.32-.47,.21-.87,.5-1.23,.86-.35,.36-.63,.77-.84,1.24-.21,.47-.33,.95-.36,1.45h7.67Zm-11.92,.41v.35c0,.12,0,.26-.02,.4h-9.33c.01,.64,.12,1.24,.33,1.81,.21,.57,.5,1.06,.87,1.48,.37,.42,.81,.75,1.3,1,.5,.24,1.03,.37,1.61,.37,.85,0,1.58-.19,2.2-.59,.62-.39,1.09-.84,1.4-1.36l1.22,.97c-.67,.81-1.41,1.38-2.22,1.68-.81,.31-1.67,.46-2.6,.46-.83,0-1.61-.15-2.33-.45-.71-.3-1.32-.72-1.83-1.26-.51-.53-.92-1.17-1.22-1.9-.29-.74-.44-1.54-.44-2.4s.14-1.66,.43-2.39c.29-.74,.69-1.37,1.21-1.91,.51-.54,1.11-.95,1.8-1.26,.69-.3,1.43-.45,2.23-.45,.89,0,1.66,.15,2.33,.43,.67,.29,1.24,.69,1.68,1.18,.45,.49,.79,1.07,1.02,1.72,.23,.66,.35,1.36,.35,2.11Zm-1.65-.41c-.05-1.12-.39-2.04-1.02-2.78-.63-.73-1.53-1.1-2.7-1.1-.55,0-1.05,.11-1.52,.32-.47,.21-.87,.5-1.23,.86-.35,.36-.63,.77-.84,1.24-.21,.47-.33,.95-.36,1.45h7.67Zm-13.81-7.59c-.37-.51-.84-.93-1.41-1.24-.58-.31-1.28-.47-2.09-.47-.42,0-.84,.07-1.27,.19-.43,.12-.83,.32-1.18,.58s-.64,.59-.85,.99c-.22,.4-.32,.86-.32,1.4s.1,.99,.31,1.34c.21,.35,.49,.65,.83,.89,.35,.25,.74,.45,1.18,.61s.9,.31,1.38,.47c.6,.19,1.19,.4,1.79,.62,.6,.22,1.14,.51,1.62,.87,.48,.36,.87,.81,1.17,1.36,.31,.55,.46,1.24,.46,2.08s-.17,1.57-.5,2.19c-.33,.61-.75,1.12-1.27,1.52-.52,.4-1.12,.69-1.78,.88-.66,.19-1.33,.28-2,.28-.51,0-1.03-.05-1.54-.16-.51-.11-1-.27-1.47-.48-.47-.22-.9-.49-1.29-.82-.4-.33-.76-.7-1.06-1.12l1.49-1.11c.37,.61,.89,1.12,1.55,1.53,.67,.41,1.45,.61,2.34,.61,.43,0,.87-.07,1.32-.2,.45-.14,.86-.34,1.22-.62,.36-.28,.66-.62,.88-1.03,.23-.41,.35-.88,.35-1.42,0-.59-.12-1.08-.35-1.47-.23-.39-.53-.72-.92-.98-.38-.26-.83-.48-1.32-.66-.5-.17-1.02-.35-1.56-.53-.56-.17-1.12-.37-1.66-.59-.55-.22-1.03-.52-1.47-.87-.43-.36-.78-.8-1.05-1.33-.26-.52-.39-1.17-.39-1.93,0-.81,.16-1.51,.49-2.1,.33-.59,.76-1.07,1.29-1.45,.53-.38,1.11-.66,1.75-.83,.64-.18,1.28-.27,1.9-.27,1.15,0,2.14,.22,2.95,.65,.82,.43,1.44,.93,1.85,1.5l-1.37,1.11Zm-12.86,14.18h-1.64V6.17h1.64V24.34Zm-7.86-5.81c-.67,0-1.35,.03-2.04,.1-.68,.06-1.29,.19-1.85,.37-.55,.19-1.01,.46-1.36,.81-.35,.35-.53,.82-.53,1.4,0,.44,.07,.82,.22,1.12,.15,.3,.36,.54,.61,.72,.26,.19,.54,.32,.85,.4,.31,.08,.63,.12,.96,.12,.58,0,1.09-.11,1.54-.33,.45-.22,.82-.52,1.12-.9,.31-.38,.54-.82,.7-1.31,.16-.5,.24-1.02,.24-1.57v-.93h-.48Zm.48-1.55c0-1.04-.26-1.82-.77-2.33-.51-.51-1.26-.77-2.24-.77-.67,0-1.3,.12-1.88,.36-.58,.24-1.07,.56-1.47,.96l-.91-1.09c.47-.41,1.07-.75,1.84-1.01,.76-.26,1.62-.39,2.59-.39,.6,0,1.17,.09,1.7,.26,.53,.17,1,.42,1.4,.76,.4,.34,.71,.77,.94,1.29,.22,.52,.34,1.12,.34,1.81v4.97c0,.43,.02,.89,.05,1.36,.03,.47,.08,.86,.14,1.19h-1.46c-.05-.26-.09-.55-.12-.85-.03-.31-.05-.62-.05-.91h-.05c-.51,.77-1.09,1.32-1.74,1.66-.65,.33-1.43,.5-2.35,.5-.43,0-.88-.06-1.33-.19-.46-.12-.88-.32-1.26-.6-.38-.28-.69-.64-.94-1.09-.25-.44-.37-.98-.37-1.62,0-.88,.22-1.59,.66-2.1,.44-.52,1.03-.9,1.77-1.16,.74-.25,1.59-.42,2.54-.49,.95-.08,1.94-.12,2.97-.12v-.39Zm-15.62-1.48c0-.31-.01-.7-.02-1.18-.02-.48-.04-.91-.07-1.29h1.56c.03,.3,.05,.64,.07,1.01,.02,.37,.02,.67,.02,.91h.05c.32-.66,.8-1.2,1.44-1.61,.64-.41,1.36-.62,2.16-.62,.21,0,.4,.03,.56,.08,.17,.05,.34,.16,.52,.31l-.22,1.31c-.1-.03-.26-.07-.48-.1-.22-.03-.45-.05-.67-.05-.44,0-.86,.08-1.26,.24-.4,.16-.75,.42-1.05,.76-.29,.34-.53,.79-.72,1.33-.18,.54-.27,1.19-.27,1.94v5.8h-1.64V15.5Zm-5.78,8.84c-.03-.3-.06-.64-.07-1-.02-.37-.02-.68-.02-.91h-.05c-.32,.65-.84,1.2-1.56,1.65-.72,.44-1.48,.66-2.28,.66-1.43,0-2.5-.39-3.21-1.17-.71-.78-1.07-1.86-1.07-3.26v-6.9h1.64v6.23c0,.6,.05,1.13,.14,1.61s.26,.89,.49,1.24c.23,.34,.55,.61,.94,.81,.39,.19,.88,.28,1.48,.28,.43,0,.85-.09,1.26-.26,.41-.18,.77-.45,1.09-.81,.33-.36,.58-.81,.77-1.37,.19-.55,.29-1.21,.29-1.96v-5.77h1.64v8.77c0,.31,0,.67,.02,1.11,.02,.43,.04,.78,.07,1.06h-1.56Zm-11.5-6.18v.35c0,.12,0,.26-.02,.4h-9.33c.01,.64,.12,1.24,.33,1.81,.21,.57,.5,1.06,.87,1.48,.37,.42,.81,.75,1.3,1,.5,.24,1.03,.37,1.61,.37,.85,0,1.58-.19,2.2-.59,.62-.39,1.09-.84,1.4-1.36l1.22,.97c-.67,.81-1.41,1.38-2.22,1.68-.81,.31-1.67,.46-2.6,.46-.83,0-1.61-.15-2.33-.45-.71-.3-1.32-.72-1.83-1.26-.51-.53-.92-1.17-1.22-1.9-.29-.74-.44-1.54-.44-2.4s.14-1.66,.43-2.39c.29-.74,.69-1.37,1.21-1.91,.51-.54,1.11-.95,1.8-1.26,.69-.3,1.43-.45,2.23-.45,.89,0,1.66,.15,2.33,.43,.67,.29,1.24,.69,1.68,1.18,.45,.49,.79,1.07,1.02,1.72s.35,1.36,.35,2.11Zm-1.65-.41c-.05-1.12-.39-2.04-1.02-2.78-.63-.73-1.53-1.1-2.7-1.1-.55,0-1.05,.11-1.52,.32-.47,.21-.87,.5-1.23,.86-.35,.36-.63,.77-.84,1.24-.21,.47-.33,.95-.36,1.45h7.67Zm-14.64,4.06h.05V7.28h1.73V24.34h-2.16L1.78,9.67h-.05v14.67H0V7.28H2.16l9.9,14.52Z"></path>
			<g id="Face">
				<path id="_Compound_Path_" class="cls-1" d="M131.85,12.92c-.36,0-.65-.29-.65-.66s.29-.65,.65-.65,.65,.29,.65,.65-.29,.66-.65,.66Zm8.4,2.18c-.48,0-.87-.39-.87-.87s.39-.87,.87-.87,.87,.39,.87,.87-.39,.87-.87,.87Zm-.72-8.42c-.57,0-1.03-.46-1.03-1.03s.46-1.03,1.03-1.03,1.03,.46,1.03,1.03-.46,1.03-1.03,1.03Zm-3.66,.06c-.36,0-.65-.29-.65-.65s.29-.65,.65-.65,.65,.29,.65,.65-.29,.65-.65,.65Zm-1.06,5.7c-.36,0-.65-.29-.65-.65s.29-.65,.65-.65,.65,.29,.65,.65-.29,.65-.65,.65Zm11.98,4.19c-.73,0-1.32-.59-1.32-1.33s.59-1.32,1.32-1.32,1.33,.59,1.33,1.32-.59,1.33-1.33,1.33Zm-4.93-8.24c-.48,0-.87-.39-.87-.87s.39-.87,.87-.87,.87,.39,.87,.87-.39,.87-.87,.87Zm6.78,2.39c-.48,0-.87-.39-.87-.87s.39-.87,.87-.87,.87,.39,.87,.87-.39,.87-.87,.87Zm-4.37,8.17c-.57,0-1.03-.46-1.03-1.03s.46-1.03,1.03-1.03,1.03,.46,1.03,1.03-.46,1.03-1.03,1.03Zm5.01-5.13c-.48,0-.87-.39-.87-.87s.39-.87,.87-.87,.87,.39,.87,.87-.39,.87-.87,.87Zm-5.9,2.01c-.38,0-.7-.31-.7-.7s.31-.7,.7-.7,.7,.31,.7,.7-.31,.7-.7,.7Zm.22-9.98c-.36,0-.65-.29-.65-.65s.29-.65,.65-.65,.65,.29,.65,.65-.29,.65-.65,.65Zm-8.62,3.62c-.36,0-.65-.29-.65-.65s.29-.65,.65-.65,.65,.29,.65,.65-.29,.65-.65,.65Zm10.91,2.47c-.4,0-.72-.32-.72-.72s.32-.72,.72-.72,.72,.32,.72,.72-.32,.72-.72,.72Zm-7.2-1.29l-.59,1.75c.3,.24,.5,.61,.5,1.03,0,.73-.59,1.33-1.32,1.33s-1.32-.59-1.32-1.33,.59-1.32,1.32-1.32c.1,0,.2,.01,.29,.03l.54-1.6c-.47-.2-.8-.67-.8-1.22,0-.73,.59-1.32,1.33-1.32s1.32,.59,1.32,1.32c0,.21-.05,.41-.14,.59l2.4,1.65c.23-.2,.53-.32,.86-.32,.06,0,.12,0,.17,.01l.48-1.44c-.36-.24-.6-.65-.6-1.11,0-.73,.59-1.32,1.33-1.32s1.32,.59,1.32,1.32-.59,1.32-1.32,1.32c-.06,0-.12,0-.17-.01l-.48,1.44c.36,.24,.6,.65,.6,1.11,0,.73-.59,1.32-1.32,1.32s-1.32-.59-1.32-1.32c0-.19,.04-.37,.11-.53l-2.42-1.66c-.21,.16-.46,.26-.74,.27Zm8.43-2.24c-.48,0-.87-.39-.87-.87s.39-.87,.87-.87,.87,.39,.87,.87-.39,.87-.87,.87Zm-14.73,2.06c-.59,0-1.07-.48-1.07-1.07s.48-1.07,1.07-1.07,1.06,.48,1.06,1.07-.48,1.07-1.06,1.07Z"></path>
				<path id="_Path_" class="cls-1" d="M157.54,13.21c.18,1.38,.9,2.64,1.83,4.06,.61,.94,.89,1.07,.12,1.76-.47,.42-.94,.84-1.4,1.26l.31,.93c.13,.41,.09,.31-.25,.62l-.53,.48c.35,1.17,.36,.87-.79,1.47-.1,1.07,.47,2.62-.26,3.2-2.13,1.71-4.95-2.3-10.19,.41-1.55,.8-2.21,1.57-3.47,2.7,.28-.96,1.01-2.36,1.41-3.47,2.55-7.11,5.45-9.14,7.08-11.12,6.79-8.3-5.11-15.98-15.96-13.03,7.53-4.84,19.83-2.53,21.81,6.37,.39,1.75,.12,2.86,.31,4.37Z"></path>
			</g>
		</g>
	</g>
</svg>